# xmcd
#
# Track frame offsets: 
#        150
#        17964
#        33848
#        55013
#        74007
#        90126
#        110679
#        127376
#        147589
#        159157
#        176873
#        206122
#        224345
#        241447
#
# Disc length: 3507 seconds
#
# Revision: 1
# Processed by: cddbd v1.5.2PL0 Copyright (c) Steve Scherf et al.
# Submitted via: ExactAudioCopy v0.99pb5
#
DISCID=d40db10e
DTITLE=Otis Taylor - Otis Taylor's Contraband
DYEAR=2012
DGENRE=Blues
TTITLE0=The Devil's Gonna Lie
TTITLE1=Yell Your Name
TTITLE2=Look To The Side
TTITLE3=Romans Had Their Way
TTITLE4=Blind Piano Teacher
TTITLE5=Banjo Boogie Blues
TTITLE6=2 Or 3 Times
TTITLE7=Contraband Blues
TTITLE8=Lay On My Delta Bed
TTITLE9=Your 10 Dollar Bill
TTITLE10=Open These Bars
TTITLE11=Yellow Car, Yellow Dog
TTITLE12=Never Been To Africa
TTITLE13=I Can See You're Lying
EXTD=YEAR: 2012
EXTT0=
EXTT1=
EXTT2=
EXTT3=
EXTT4=
EXTT5=
EXTT6=
EXTT7=
EXTT8=
EXTT9=
EXTT10=
EXTT11=
EXTT12=
EXTT13=
PLAYORDER=
